<?xml version="1.0" encoding="UTF-8"?><svg id="Layer_1" xmlns="http://www.w3.org/2000/svg" viewBox="0 0 172.66 204.91"><defs><style>.cls-1{fill:#fff;}</style></defs><polygon class="cls-1" points="91.33 127.13 91.33 141.8 158.44 103.13 159.33 149.35 105.55 181.8 105.55 163.57 148.66 138.69 148.66 124.02 91.77 158.24 91.77 204.91 172.66 157.8 172.66 79.13 91.33 127.13"/><polygon class="cls-1" points="0 157.8 80.89 204.91 80.89 158.24 24 124.02 24 138.69 67.11 163.57 67.11 181.8 13.33 149.35 14.22 103.13 81.33 141.8 81.33 127.13 0 79.13 0 157.8"/><path class="cls-1" d="m98.72,63.74c-.06-7.43-.15-13.94-.15-13.94,0,0,13.77-5.78,15.55-24.89S95.01-.43,84.79.02c-10.22.44-27.11,4.44-28,23.11-.89,18.67,17.33,27.56,15.11,27.56l.17,12.88L3,72.91l84,48,81.77-47.11s-70.05-10.06-70.05-10.06Zm-31.07-33.05c-5.34-10.23,5.33-24.89,23.11-21.78s15.55,20.44,9.78,27.11c-5.78,6.67-10.23,7.55-18.67,7.11,0,0-8.89-2.22-14.22-12.44Zm17.79,78.22l-52.44-32,39.17-5.31.17,12.86s4,10.67,12.45,11.11c8.44.45,13.33-6.22,13.78-11.11.16-1.77.2-6.83.19-12.55l40.01,6.33-53.33,30.67h0Z"/></svg>